/* XPM */
static char *dummy[]={
"32 32 5 1",
". c None",
"a c #000000",
"# c #808080",
"b c #c0c0c0",
"c c #ffffff",
"........................##......",
".......................#aa#.....",
".......................aaaa#....",
"......................#aaaa#....",
"......................#aaaaa#...",
".....................#aaaaaa#...",
"...................#a##aaaaaa#..",
"..................#abb#aaaaaa#..",
".................#abcc#aaaaaa#..",
"...............#aabccc#aaaaaaa#.",
".............##abccccc#baaaaaa#.",
"...........##aabcccccc##baaaaa#.",
"........###aabcccccccc##caaaaaa#",
"......##aaaabccccccccc##cbaaaaa#",
".....#aaaaaabcccccccccb#cbaaaaa#",
"...##aaaaaaabcccccccccc#bbaaaaa#",
"..###aaaaaaabcccccccccc#bbaaaaa#",
".####aaaaaaabcccccccccc##baaaaa#",
".####aaaaaaabccccccccccb#baaaaa#",
".####aaaaaaaabbccccccccc##aaaaa#",
".####aaaaaaaaaabbbbbbbccb#aaaaa#",
"..##aaaaaaaaaa#######bbbb#aaaaa#",
"....#####aaaa#.......####aaaaa##",
".........#aaa#............#aaa#.",
"..........#aaa#.............##..",
"..........#aaa#.................",
"..........#aaaa#................",
"...........#aaa#................",
"...........#aaa#................",
"............aaaa#...............",
"............#aaa#...............",
".............###................"};
